<?xml version="1.0" encoding="UTF-8"?>
<svg version="1.1" xmlns="http://www.w3.org/2000/svg" xmlns:xlink="http://www.w3.org/1999/xlink">
<defs>

</defs>
<symbol id="i-logo" xmlns="http://www.w3.org/2000/svg" viewBox="0 0 750.1 710.4"><path fill="none" stroke="currentColor" stroke-width="40" stroke-miterlimit="10" d="M387.5 14.1l-149 149.1M87.2 314.5l-73.1 73M459.1 17L241.3 234.8M128.8 347.2L18.4 457.7M511.4 39l-248 248.1M182.4 368.1L35.2 515.2M440.6 187.6L302.4 325.8M554.1 73.1l-85.5 85.5M263.4 364.8L63 565.2"/><path fill="#fff" stroke="currentColor" stroke-width="40" stroke-miterlimit="10" d="M96.3 608.2L346.6 358l235.8-235.8M136.4 642.6l270.8-270.8 188.9-188.9M183.6 669.8l320.1-320.1.7-.7 68.9-68.9 88-88"/><path fill="none" stroke="currentColor" stroke-width="40" stroke-miterlimit="10" d="M537.5 390.3L239 688.8M736 191.9l-75.5 75.4M559.1 443.2L306 696.3M560.8 515.8L394.3 682.3"/></symbol>
</svg>